# xmcd
#
# Track frame offsets:
#	150
#	17118
#	38971
#	62712
#
# Disc length: 1064 seconds
#
# Revision: 1
# Processed by: cddbd v1.4PL0 Copyright (c) Steve Scherf et al.
# Submitted via: audiograbber 1.80
#
DISCID=2e042604
DTITLE=David Franj - God Only Knows
DYEAR=1900
DGENRE=
TTITLE0=God Only Knows
TTITLE1=No Mistaking (demo 1999)
TTITLE2=September (demo 1999)
TTITLE3=Data Track
EXTD=
EXTT0=
EXTT1=
EXTT2=
EXTT3=
PLAYORDER=
